<svg width="62" height="16" viewBox="0 0 62 16" fill="none" xmlns="http://www.w3.org/2000/svg">
<path fill-rule="evenodd" clip-rule="evenodd" d="M7.54583 13.4379L8.07436 13.97L9.1386 12.913L8.61007 12.3809L4.84399 8.58923H12.8746H13.6246V7.08923H12.8746H4.76983L8.33193 3.25313L8.84226 2.70354L7.74307 1.68286L7.23274 2.23246L2.49647 7.33305L2.00635 7.86088L2.51395 8.37192L7.54583 13.4379Z" fill="#311E08"/>
<path fill-rule="evenodd" clip-rule="evenodd" d="M7.54583 13.4379L8.07436 13.97L9.1386 12.913L8.61007 12.3809L4.84399 8.58923H12.8746H13.6246V7.08923H12.8746H4.76983L8.33193 3.25313L8.84226 2.70354L7.74307 1.68286L7.23274 2.23246L2.49647 7.33305L2.00635 7.86088L2.51395 8.37192L7.54583 13.4379Z" fill="black" fill-opacity="0.2"/>
</svg>
