<svg width="33" height="30" viewBox="0 0 33 30" fill="none" xmlns="http://www.w3.org/2000/svg">
<path d="M30.0052 9.28876C29.8788 9.1226 29.7099 8.98678 29.513 8.89295C29.3162 8.79912 29.0973 8.75007 28.875 8.75001H10.0829L8.49612 5.28751C8.28807 4.83153 7.93577 4.44199 7.48388 4.16827C7.032 3.89455 6.50088 3.74897 5.95787 3.75001H2.75V6.25001H5.95787L12.4809 20.4813C12.5854 20.709 12.7616 20.9034 12.9875 21.0402C13.2133 21.177 13.4786 21.25 13.75 21.25H24.75C25.3234 21.25 25.8362 20.9263 26.0384 20.44L30.1634 10.44C30.2413 10.2508 30.2677 10.0472 30.2401 9.84669C30.2126 9.64619 30.132 9.45474 30.0052 9.28876Z" fill="#311E08"/>
<path d="M14.4375 26.25C15.5766 26.25 16.5 25.4105 16.5 24.375C16.5 23.3395 15.5766 22.5 14.4375 22.5C13.2984 22.5 12.375 23.3395 12.375 24.375C12.375 25.4105 13.2984 26.25 14.4375 26.25Z" fill="#311E08"/>
<path d="M24.0625 26.25C25.2016 26.25 26.125 25.4105 26.125 24.375C26.125 23.3395 25.2016 22.5 24.0625 22.5C22.9234 22.5 22 23.3395 22 24.375C22 25.4105 22.9234 26.25 24.0625 26.25Z" fill="#311E08"/>
</svg>
